<svg width="25" height="18" viewBox="0 0 25 18" fill="none" xmlns="http://www.w3.org/2000/svg">
<path d="M20.6093 17.7609C20.4737 17.7609 20.3471 17.6795 20.2928 17.5439L19.7095 16.0608C19.6417 15.8844 19.7276 15.69 19.8994 15.6222C20.0758 15.5543 20.2702 15.6403 20.338 15.8121L20.9213 17.2952C20.9891 17.4715 20.9032 17.666 20.7314 17.7338C20.6952 17.7564 20.65 17.7609 20.6093 17.7609Z" fill="#006EF2"/>
<path d="M20.6095 17.7609C20.6005 17.7609 20.5914 17.7609 20.5869 17.7609L18.0729 17.5801C17.8875 17.5665 17.7473 17.4037 17.7609 17.2183C17.7744 17.0329 17.9372 16.8973 18.1226 16.9063L18.6923 16.947L10.5895 13.3613C10.4176 13.2845 10.3408 13.0855 10.4176 12.9137C10.4945 12.7419 10.6935 12.665 10.8653 12.7419L20.7497 17.1188C20.8989 17.1867 20.9803 17.3495 20.9396 17.5122C20.9034 17.6569 20.7633 17.7609 20.6095 17.7609Z" fill="url(#paint0_linear_31_872)"/>
<path d="M10.7249 13.3839C10.5395 13.3839 10.3858 13.2302 10.3858 13.0448V1.97121L9.82963 2.96598C9.73919 3.12876 9.53119 3.18754 9.36841 3.09711C9.20563 3.00667 9.14685 2.79868 9.23728 2.6359L10.4265 0.501658C10.5034 0.366008 10.6571 0.298182 10.8063 0.338877C10.9555 0.379573 11.0595 0.510703 11.0595 0.668962V13.0448C11.064 13.2347 10.9148 13.3839 10.7249 13.3839Z" fill="url(#paint1_linear_31_872)"/>
<path d="M11.7604 2.63589C11.6474 2.63589 11.5389 2.58163 11.4756 2.47763L10.4401 0.849817C10.3406 0.691558 10.3858 0.48356 10.5441 0.379561C10.7024 0.280084 10.9104 0.325302 11.0144 0.483561L12.0498 2.11137C12.1493 2.26963 12.1041 2.47763 11.9458 2.58162C11.8825 2.62232 11.8237 2.63589 11.7604 2.63589Z" fill="url(#paint2_linear_31_872)"/>
<path d="M0.840523 17.7611C0.686786 17.7611 0.551135 17.6571 0.51044 17.5033C0.469745 17.3451 0.551135 17.1778 0.700351 17.1099L10.5848 12.7329C10.7566 12.6561 10.9555 12.7329 11.0324 12.9048C11.1093 13.0766 11.0324 13.2755 10.8606 13.3524L2.75772 16.9426L3.32745 16.9019C3.51284 16.8929 3.67562 17.0285 3.68919 17.2139C3.70275 17.3993 3.56258 17.5621 3.37719 17.5757L0.863132 17.7565C0.85861 17.7611 0.849567 17.7611 0.840523 17.7611Z" fill="url(#paint3_linear_31_872)"/>
<path d="M0.840485 17.7611C0.79979 17.7611 0.759094 17.7521 0.718399 17.7385C0.542053 17.6707 0.456141 17.4717 0.528488 17.2999L1.11179 15.8168C1.17961 15.6404 1.37404 15.5545 1.55039 15.6269C1.72674 15.6947 1.81265 15.8937 1.7403 16.0655L1.157 17.5486C1.10274 17.6797 0.976135 17.7611 0.840485 17.7611Z" fill="url(#paint4_linear_31_872)"/>
<path d="M23.2718 1.30597H17.4501H13.9495C13.2732 1.30597 12.7213 1.85784 12.7213 2.53415V11.8564C12.7213 12.5328 13.2732 13.0846 13.9495 13.0846H23.2718C23.9481 13.0846 24.5 12.5328 24.5 11.8564V2.53415C24.5 1.85243 23.9481 1.30597 23.2718 1.30597Z" fill="#E1E9F0"/>
<path d="M15.4701 5.60741C15.324 5.60741 15.205 5.48838 15.205 5.3423V3.18351C15.205 3.03743 15.324 2.9184 15.4701 2.9184C15.6162 2.9184 15.7352 3.03743 15.7352 3.18351V5.3423C15.7352 5.48838 15.6162 5.60741 15.4701 5.60741Z" fill="#8298AB"/>
<path d="M14.1282 4.26554C14.1282 4.11946 14.2472 4.00043 14.3933 4.00043H16.5521C16.6982 4.00043 16.8172 4.11946 16.8172 4.26554C16.8172 4.41162 16.6982 4.53065 16.5521 4.53065H14.3933C14.2472 4.53065 14.1282 4.41162 14.1282 4.26554Z" fill="#8298AB"/>
<path d="M14.5179 11.2776C14.4151 11.1748 14.4151 11.0071 14.5179 10.9043L16.0437 9.37855C16.1465 9.27575 16.3142 9.27575 16.417 9.37855C16.5198 9.48135 16.5198 9.64907 16.417 9.75187L14.8912 11.2776C14.7884 11.3804 14.6207 11.3804 14.5179 11.2776Z" fill="#8298AB"/>
<path d="M14.5179 9.37855C14.6207 9.27575 14.7884 9.27575 14.8912 9.37855L16.417 10.9043C16.5198 11.0071 16.5198 11.1748 16.417 11.2776C16.3142 11.3804 16.1465 11.3804 16.0437 11.2776L14.5179 9.75187C14.4151 9.64907 14.4151 9.48135 14.5179 9.37855Z" fill="#8298AB"/>
<path d="M20.4044 4.26554C20.4044 4.11946 20.5235 4.00043 20.6695 4.00043H22.8283C22.9744 4.00043 23.0934 4.11946 23.0934 4.26554C23.0934 4.41162 22.9744 4.53065 22.8283 4.53065H20.6695C20.518 4.53065 20.4044 4.41162 20.4044 4.26554Z" fill="#8298AB"/>
<path d="M20.4045 9.82219C20.4045 9.6761 20.5236 9.55707 20.6697 9.55707H22.8284C22.9745 9.55707 23.0936 9.6761 23.0936 9.82219C23.0936 9.96827 22.9745 10.0873 22.8284 10.0873H20.6697C20.5182 10.0873 20.4045 9.96827 20.4045 9.82219Z" fill="#8298AB"/>
<path d="M20.4044 10.8396C20.4044 10.6935 20.5235 10.5745 20.6695 10.5745H22.8283C22.9744 10.5745 23.0934 10.6935 23.0934 10.8396C23.0934 10.9857 22.9744 11.1047 22.8283 11.1047H20.6695C20.518 11.0993 20.4044 10.9802 20.4044 10.8396Z" fill="#8298AB"/>
<defs>
<linearGradient id="paint0_linear_31_872" x1="11.6405" y1="29.398" x2="24.467" y2="28.4576" gradientUnits="userSpaceOnUse">
<stop stop-color="#006EF2"/>
<stop offset="1" stop-color="#01AEFA"/>
</linearGradient>
<linearGradient id="paint1_linear_31_872" x1="9.416" y1="43.4783" x2="11.6927" y2="43.4669" gradientUnits="userSpaceOnUse">
<stop stop-color="#006EF2"/>
<stop offset="1" stop-color="#01AEFA"/>
</linearGradient>
<linearGradient id="paint2_linear_31_872" x1="10.5909" y1="7.95781" x2="12.6833" y2="7.90334" gradientUnits="userSpaceOnUse">
<stop stop-color="#006EF2"/>
<stop offset="1" stop-color="#01AEFA"/>
</linearGradient>
<linearGradient id="paint3_linear_31_872" x1="1.75273" y1="29.419" x2="14.5794" y2="28.4802" gradientUnits="userSpaceOnUse">
<stop stop-color="#006EF2"/>
<stop offset="1" stop-color="#01AEFA"/>
</linearGradient>
<linearGradient id="paint4_linear_31_872" x1="0.652626" y1="22.7395" x2="2.19419" y2="22.7079" gradientUnits="userSpaceOnUse">
<stop stop-color="#006EF2"/>
<stop offset="1" stop-color="#01AEFA"/>
</linearGradient>
</defs>
</svg>
