<svg xmlns="http://www.w3.org/2000/svg" width="62" height="53" viewBox="0 0 62 53" fill="none"><path d="M22.5758 13.6292C22.7636 13.8175 23.0185 13.9235 23.2844 13.924H23.3308C23.47 13.9176 23.6063 13.8823 23.7311 13.8203C23.8559 13.7583 23.9665 13.6711 24.0557 13.564L29.0722 7.54415C29.1104 7.497 29.1444 7.44662 29.1738 7.39363C29.3061 7.2002 29.3613 6.9643 29.3286 6.73227C29.2959 6.50023 29.1776 6.28881 28.997 6.13949C28.8808 6.04204 28.7426 5.97447 28.5944 5.94261C28.4062 5.88429 28.205 5.88265 28.0158 5.93796C27.8267 5.99327 27.658 6.10309 27.5309 6.25364L23.2179 11.4295L21.9876 10.2004C21.7995 10.0124 21.5444 9.90675 21.2784 9.90675C21.0124 9.90675 20.7573 10.0124 20.5692 10.2004C20.3812 10.3885 20.2755 10.6436 20.2755 10.9096C20.2755 11.1756 20.3812 11.4307 20.5692 11.6188L22.5758 13.6292Z" fill="url(#paint0_linear)"></path><path d="M58.3134 1.00754H52.419C51.7154 1.00844 51.0355 1.26105 50.502 1.71973C49.9686 2.1784 49.6169 2.81285 49.5106 3.50828L47.6495 12.6635H33.4539C33.7654 11.7506 33.9242 10.7925 33.9242 9.82791C33.9215 7.48709 32.9904 5.24292 31.3352 3.58771C29.68 1.9325 27.4358 1.00143 25.095 0.998779C22.7542 1.00143 20.51 1.9325 18.8548 3.58771C17.1996 5.24292 16.2685 7.48709 16.2659 9.82791C16.2664 10.7925 16.4253 11.7504 16.7362 12.6635H1.93734C1.79811 12.6635 1.66062 12.6944 1.53481 12.7541C1.40901 12.8137 1.29804 12.9006 1.20994 13.0084C1.1217 13.1164 1.0585 13.2426 1.02488 13.3779C0.991271 13.5132 0.988082 13.6543 1.01555 13.791L5.18556 34.261C5.22893 34.4735 5.34436 34.6645 5.51234 34.8016C5.68031 34.9387 5.89051 35.0136 6.10735 35.0135H44.2533C44.793 35.0145 45.3103 35.2295 45.6919 35.6113C46.0734 35.993 46.2881 36.5105 46.2887 37.0503C46.288 37.5788 46.0817 38.0862 45.7136 38.4654C45.3454 38.8446 44.8442 39.0657 44.316 39.0819C44.2896 39.0819 44.262 39.0819 44.2344 39.0819H6.1086C5.85914 39.0819 5.6199 39.1811 5.4435 39.3575C5.2671 39.5338 5.168 39.7731 5.168 40.0225V44.0245C5.168 44.274 5.2671 44.5132 5.4435 44.6896C5.6199 44.866 5.85914 44.9651 6.1086 44.9651H7.79542C7.39983 45.5916 7.1902 46.3174 7.19093 47.0583C7.19225 48.103 7.60783 49.1045 8.34654 49.8432C9.08524 50.5819 10.0868 50.9975 11.1314 50.9988C12.1763 50.9978 13.1782 50.5823 13.9171 49.8436C14.6561 49.1049 15.0719 48.1032 15.0732 47.0583C15.0739 46.3174 14.8643 45.5916 14.4687 44.9651H35.8756C35.48 45.5916 35.2704 46.3174 35.2711 47.0583C35.2724 48.1032 35.6882 49.1049 36.4272 49.8436C37.1661 50.5823 38.168 50.9978 39.2129 50.9988C40.2575 50.9975 41.2591 50.5819 41.9978 49.8432C42.7365 49.1045 43.1521 48.103 43.1534 47.0583C43.1541 46.3174 42.9445 45.5916 42.5489 44.9651H44.2357C44.4852 44.9651 44.7244 44.866 44.9008 44.6896C45.0772 44.5132 45.1763 44.274 45.1763 44.0245V40.8603C46.0295 40.6526 46.7883 40.1646 47.3313 39.4745C47.8742 38.7844 48.17 37.9321 48.1712 37.054C48.1701 36.2106 47.8972 35.3899 47.393 34.7138C46.8888 34.0376 46.1801 33.542 45.3719 33.3004L50.8337 6.43169C51.3061 6.73431 51.8554 6.89492 52.4164 6.89446H58.3109C58.698 6.89479 59.0814 6.81882 59.4392 6.67082C59.7969 6.52283 60.1219 6.30574 60.3956 6.03199C60.6694 5.75825 60.8865 5.43319 61.0345 5.07547C61.1825 4.71775 61.2585 4.33436 61.2581 3.94723C61.2568 3.16711 60.946 2.41938 60.3939 1.86823C59.8418 1.31707 59.0935 1.00754 58.3134 1.00754ZM11.1327 49.1138C10.5867 49.1132 10.0633 48.896 9.67728 48.5099C9.29123 48.1239 9.07406 47.6005 9.07339 47.0546C9.07406 46.5086 9.29123 45.9852 9.67728 45.5991C10.0633 45.2131 10.5867 44.9959 11.1327 44.9953C11.6789 44.9956 12.2026 45.2126 12.5889 45.5987C12.9752 45.9848 13.1926 46.5084 13.1932 47.0546C13.1919 47.6003 12.9743 48.1232 12.588 48.5088C12.2018 48.8943 11.6784 49.111 11.1327 49.1113V49.1138ZM39.2141 49.1138C38.6679 49.1135 38.1442 48.8965 37.7579 48.5104C37.3716 48.1243 37.1542 47.6007 37.1536 47.0546C37.1542 46.5084 37.3716 45.9848 37.7579 45.5987C38.1442 45.2126 38.6679 44.9956 39.2141 44.9953C39.7601 44.9959 40.2835 45.2131 40.6695 45.5991C41.0556 45.9852 41.2728 46.5086 41.2734 47.0546C41.2721 47.6001 41.0546 48.1228 40.6687 48.5083C40.2827 48.8938 39.7596 49.1107 39.2141 49.1113V49.1138ZM7.05046 43.0802V40.9644H43.2951V43.0777L7.05046 43.0802ZM21.6863 24.9378H28.8085L28.2391 33.1323H22.0813L21.6863 24.9378ZM20.1976 33.1323H13.7262L12.5448 24.9378H19.8038L20.1976 33.1323ZM21.596 23.0566L21.3451 17.818C22.5183 18.3709 23.7994 18.6571 25.0963 18.6558C26.5724 18.6575 28.0252 18.287 29.3202 17.5785L28.944 23.0566H21.596ZM30.6935 24.9378H37.5185L36.2644 33.1323H30.1304L30.6935 24.9378ZM39.4211 24.9378H45.1525L43.487 33.1323H38.1632L39.4211 24.9378ZM39.7108 23.0566L41.0176 14.5447H47.2657L45.535 23.0566H39.7108ZM39.1138 14.5447L37.8057 23.0541H30.8239L31.3068 16.0911C31.7778 15.6227 32.1951 15.1032 32.5509 14.5422L39.1138 14.5447ZM25.095 2.88121C26.9371 2.88321 28.7032 3.61584 30.0057 4.91839C31.3083 6.22095 32.041 7.98704 32.043 9.82913C32.0406 11.671 31.3078 13.4368 30.0053 14.7391C28.7028 16.0414 26.9369 16.7738 25.095 16.7758C23.2531 16.7738 21.4873 16.0414 20.1847 14.7391C18.8822 13.4368 18.1494 11.671 18.1471 9.82913C18.1484 7.98649 18.8807 6.21967 20.1833 4.91637C21.4859 3.61307 23.2524 2.8798 25.095 2.87748V2.88121ZM19.4012 16.5689L19.7135 23.0578H12.274L11.0474 14.546H17.6379C18.1204 15.3042 18.7149 15.9849 19.4012 16.5651V16.5689ZM9.14613 14.546L10.3727 23.0578H4.82186L3.08863 14.546H9.14613ZM5.20939 24.939H10.6448L11.825 33.1336H6.87865L5.20939 24.939ZM58.3134 5.01074H52.419C52.1378 5.01074 51.8681 4.89916 51.6692 4.70045C51.4702 4.50175 51.3583 4.23221 51.358 3.95103C51.3587 3.90489 51.3621 3.85882 51.368 3.81306L51.3981 3.66756C51.46 3.44426 51.5933 3.24734 51.7776 3.10693C51.962 2.96652 52.1872 2.89031 52.419 2.88997H58.3134C58.5945 2.89063 58.8638 3.00268 59.0625 3.20155C59.2611 3.40041 59.3728 3.66995 59.3732 3.95103C59.3718 4.23134 59.2596 4.49972 59.0611 4.69757C58.8625 4.89543 58.5937 5.00668 58.3134 5.007V5.01074Z" fill="url(#paint1_linear)"></path><defs><linearGradient id="paint0_linear" x1="8.14432" y1="166.243" x2="81.586" y2="163.141" gradientUnits="userSpaceOnUse"><stop stop-color="#006EF2"></stop><stop offset="1" stop-color="#01AEFA"></stop></linearGradient><linearGradient id="paint1_linear" x1="8.14432" y1="166.243" x2="81.586" y2="163.141" gradientUnits="userSpaceOnUse"><stop stop-color="#006EF2"></stop><stop offset="1" stop-color="#01AEFA"></stop></linearGradient></defs></svg>