<svg xmlns="http://www.w3.org/2000/svg" width="54" height="52" viewBox="0 0 54 52" fill="none"><path d="M52.8953 50H1.10466C0.959537 50.0002 0.815804 49.9714 0.681693 49.9154C0.547583 49.8594 0.425729 49.7772 0.323114 49.6736C0.220498 49.5699 0.139138 49.4468 0.083693 49.3114C0.0282475 49.1759 -0.000192897 49.0307 9.84635e-07 48.8841V16.7143C9.84635e-07 16.4183 0.116384 16.1345 0.323548 15.9252C0.530711 15.716 0.811684 15.5984 1.10466 15.5984H52.8953C53.1883 15.5984 53.4693 15.716 53.6765 15.9252C53.8836 16.1345 54 16.4183 54 16.7143V48.8841C54 49.1801 53.8836 49.4639 53.6765 49.6732C53.4693 49.8824 53.1883 50 52.8953 50ZM2.20931 47.7683H51.7907V17.8301H2.20931V47.7683Z" fill="url(#paint0_linear)"></path><path d="M51.9793 17.3392L41.8915 2.23174H11.8979L2.02964 17.3302L0.187077 16.0998L10.3838 0.501416C10.4845 0.347414 10.6215 0.221022 10.7823 0.133527C10.9432 0.0460322 11.1231 0.000143081 11.3058 0H42.4792C42.6602 1.07753e-05 42.8383 0.044895 42.9981 0.130766C43.1578 0.216637 43.2942 0.340875 43.3953 0.49248L53.8115 16.0909L51.9793 17.3392Z" fill="url(#paint1_linear)"></path><path d="M28.0465 0.705221H25.8372V16.8125H28.0465V0.705221Z" fill="url(#paint2_linear)"></path><path d="M15.1603 44.7033H6.62942C6.33645 44.7033 6.05547 44.5858 5.84831 44.3765C5.64115 44.1672 5.52477 43.8834 5.52477 43.5875V38.5616C5.52477 38.2657 5.64115 37.9818 5.84831 37.7725C6.05547 37.5632 6.33645 37.4457 6.62942 37.4457H15.1603C15.4533 37.4457 15.7343 37.5632 15.9414 37.7725C16.1486 37.9818 16.265 38.2657 16.265 38.5616V43.5875C16.265 43.8834 16.1486 44.1672 15.9414 44.3765C15.7343 44.5858 15.4533 44.7033 15.1603 44.7033ZM7.73408 42.4716H14.0557V39.6775H7.73408V42.4716Z" fill="url(#paint3_linear)"></path><path d="M32.2235 40.4704H18.7143C18.4213 40.4704 18.1404 40.3529 17.9332 40.1436C17.726 39.9344 17.6097 39.6505 17.6097 39.3545C17.6097 39.0586 17.726 38.7748 17.9332 38.5655C18.1404 38.3562 18.4213 38.2387 18.7143 38.2387H32.2235C32.5165 38.2387 32.7975 38.3562 33.0046 38.5655C33.2118 38.7748 33.3282 39.0586 33.3282 39.3545C33.3282 39.6505 33.2118 39.9344 33.0046 40.1436C32.7975 40.3529 32.5165 40.4704 32.2235 40.4704Z" fill="url(#paint4_linear)"></path><path d="M26.3129 43.9103H18.7143C18.4213 43.9103 18.1404 43.7927 17.9332 43.5835C17.726 43.3742 17.6097 43.0904 17.6097 42.7944C17.6097 42.4985 17.726 42.2147 17.9332 42.0054C18.1404 41.7961 18.4213 41.6785 18.7143 41.6785H26.3129C26.6059 41.6785 26.8868 41.7961 27.094 42.0054C27.3012 42.2147 27.4175 42.4985 27.4175 42.7944C27.4175 43.0904 27.3012 43.3742 27.094 43.5835C26.8868 43.7927 26.6059 43.9103 26.3129 43.9103Z" fill="url(#paint5_linear)"></path><path d="M32.2147 33.2589C32.0239 33.257 31.8368 33.2058 31.6712 33.1102L27.0125 30.4633L22.3111 33.1221C22.143 33.217 21.9533 33.2659 21.7608 33.2639C21.5683 33.2619 21.3796 33.2092 21.2135 33.1108C21.0474 33.0125 20.9096 32.872 20.8138 32.7033C20.718 32.5346 20.6675 32.3435 20.6674 32.149V16.9925C20.6674 16.6965 20.7837 16.4127 20.9909 16.2035C21.1981 15.9942 21.479 15.8766 21.772 15.8766C22.065 15.8766 22.346 15.9942 22.5531 16.2035C22.7603 16.4127 22.8767 16.6965 22.8767 16.9925V30.2342L26.4793 28.2033C26.6448 28.1093 26.8315 28.06 27.0213 28.06C27.2112 28.06 27.3979 28.1093 27.5634 28.2033L31.1145 30.2297V17.1056C31.1145 16.8097 31.2308 16.5258 31.438 16.3165C31.6452 16.1072 31.9261 15.9897 32.2191 15.9897C32.5121 15.9897 32.7931 16.1072 33.0002 16.3165C33.2074 16.5258 33.3238 16.8097 33.3238 17.1056V32.1415C33.323 32.4373 33.2064 32.7207 32.9994 32.9298C32.7924 33.1389 32.5119 33.2566 32.2191 33.2574L32.2147 33.2589Z" fill="url(#paint6_linear)"></path><defs><linearGradient id="paint0_linear" x1="6.40465" y1="165.244" x2="72.2389" y2="162.752" gradientUnits="userSpaceOnUse"><stop stop-color="#006EF2"></stop><stop offset="1" stop-color="#01AEFA"></stop></linearGradient><linearGradient id="paint1_linear" x1="6.40465" y1="165.244" x2="72.2389" y2="162.752" gradientUnits="userSpaceOnUse"><stop stop-color="#006EF2"></stop><stop offset="1" stop-color="#01AEFA"></stop></linearGradient><linearGradient id="paint2_linear" x1="6.40465" y1="165.244" x2="72.2389" y2="162.752" gradientUnits="userSpaceOnUse"><stop stop-color="#006EF2"></stop><stop offset="1" stop-color="#01AEFA"></stop></linearGradient><linearGradient id="paint3_linear" x1="6.40465" y1="165.244" x2="72.2389" y2="162.752" gradientUnits="userSpaceOnUse"><stop stop-color="#006EF2"></stop><stop offset="1" stop-color="#01AEFA"></stop></linearGradient><linearGradient id="paint4_linear" x1="6.40465" y1="165.244" x2="72.2389" y2="162.752" gradientUnits="userSpaceOnUse"><stop stop-color="#006EF2"></stop><stop offset="1" stop-color="#01AEFA"></stop></linearGradient><linearGradient id="paint5_linear" x1="6.40465" y1="165.244" x2="72.2389" y2="162.752" gradientUnits="userSpaceOnUse"><stop stop-color="#006EF2"></stop><stop offset="1" stop-color="#01AEFA"></stop></linearGradient><linearGradient id="paint6_linear" x1="6.40465" y1="165.244" x2="72.2389" y2="162.752" gradientUnits="userSpaceOnUse"><stop stop-color="#006EF2"></stop><stop offset="1" stop-color="#01AEFA"></stop></linearGradient></defs></svg>