<svg width="22" height="16" viewBox="0 0 22 16" fill="none" xmlns="http://www.w3.org/2000/svg">
<path d="M21.1454 1.57175L14.6754 8.00008L21.1454 14.4284C21.2625 14.1838 21.3333 13.9138 21.3333 13.6251V2.37509C21.3333 2.08634 21.2625 1.81634 21.1454 1.57175Z" fill="#006EF2"/>
<path d="M19.4584 0.5H1.87509C1.58634 0.5 1.31634 0.570833 1.07175 0.687916L9.34091 8.9154C10.0722 9.64665 11.2609 9.64665 11.9922 8.9154L20.2617 0.687916C20.0171 0.570833 19.7471 0.5 19.4584 0.5Z" fill="#006EF2"/>
<path d="M0.187916 1.57175C0.0708333 1.81634 0 2.08634 0 2.37509V13.6251C0 13.9138 0.0708333 14.1838 0.187916 14.4284L6.65791 8.00008L0.187916 1.57175Z" fill="#006EF2"/>
<path d="M13.7917 8.88376L12.8763 9.79917C11.658 11.0175 9.67549 11.0175 8.45758 9.79917L7.54175 8.88376L1.07175 15.3121C1.31634 15.4292 1.58634 15.5 1.87509 15.5H19.4584C19.7471 15.5 20.0171 15.4292 20.2617 15.3121L13.7917 8.88376Z" fill="#006EF2"/>
</svg>
