<svg xmlns="http://www.w3.org/2000/svg" width="53" height="52" viewBox="0 0 53 52" fill="none"><path d="M51.948 50.0332H0.934854C0.686915 50.0332 0.44913 49.9351 0.273811 49.7603C0.0984916 49.5856 0 49.3485 0 49.1014V43.406C0 43.1588 0.0984916 42.9218 0.273811 42.7471C0.44913 42.5723 0.686915 42.4741 0.934854 42.4741H51.948C52.1959 42.4741 52.4337 42.5723 52.609 42.7471C52.7843 42.9218 52.8828 43.1588 52.8828 43.406V49.1014C52.8828 49.3485 52.7843 49.5856 52.609 49.7603C52.4337 49.9351 52.1959 50.0332 51.948 50.0332ZM1.86971 48.1695H51.0131V44.3378H1.86971V48.1695Z" fill="url(#paint0_linear)"></path><path d="M44.8493 25.8538H25.1962C24.9482 25.8538 24.7104 25.7557 24.5351 25.5809C24.3598 25.4062 24.2613 25.1691 24.2613 24.922V6.40078C24.2613 6.15364 24.3598 5.91664 24.5351 5.74188C24.7104 5.56713 24.9482 5.46894 25.1962 5.46894H44.8493C45.0972 5.46894 45.335 5.56713 45.5103 5.74188C45.6857 5.91664 45.7842 6.15364 45.7842 6.40078V24.927C45.7828 25.1733 45.6838 25.409 45.5086 25.5827C45.3334 25.7563 45.0964 25.8538 44.8493 25.8538ZM26.131 23.9902H43.9144V7.33262H26.1273L26.131 23.9902Z" fill="url(#paint1_linear)"></path><path d="M32.0218 17.9295C31.9419 17.9296 31.8622 17.9191 31.785 17.8984C31.5849 17.8465 31.4078 17.7299 31.2812 17.5669C31.1547 17.4039 31.086 17.2038 31.0857 16.9977V6.40078C31.0857 6.15364 31.1842 5.91664 31.3595 5.74188C31.5349 5.56713 31.7727 5.46894 32.0206 5.46894H38.0248C38.2728 5.46894 38.5106 5.56713 38.6859 5.74188C38.8612 5.91664 38.9597 6.15364 38.9597 6.40078V16.9977C38.9597 17.1997 38.8939 17.3962 38.772 17.5576C38.6501 17.7189 38.4789 17.8364 38.2841 17.8922C38.0894 17.9482 37.8817 17.9398 37.6922 17.8681C37.5027 17.7964 37.3417 17.6654 37.2333 17.4946L34.895 13.7984L32.8358 17.4536C32.7548 17.598 32.6367 17.7181 32.4937 17.8017C32.3506 17.8854 32.1877 17.9295 32.0218 17.9295ZM34.8488 11.0463C35.0067 11.0464 35.1619 11.0863 35.3001 11.1623C35.4383 11.2384 35.5549 11.348 35.6391 11.4811L37.0962 13.7735V7.33262H32.9554V13.4343L34.0336 11.5221C34.1126 11.3813 34.227 11.2633 34.3655 11.1799C34.5041 11.0964 34.6621 11.0504 34.8239 11.0463H34.8488Z" fill="url(#paint2_linear)"></path><path d="M44.8493 44.3714H25.1962C24.9482 44.3714 24.7104 44.2732 24.5351 44.0984C24.3598 43.9237 24.2613 43.6866 24.2613 43.4395V24.9183C24.2613 24.6712 24.3598 24.4341 24.5351 24.2593C24.7104 24.0846 24.9482 23.9865 25.1962 23.9865H44.8493C45.0972 23.9865 45.335 24.0846 45.5103 24.2593C45.6857 24.4341 45.7842 24.6712 45.7842 24.9183V43.4395C45.7842 43.6866 45.6857 43.9237 45.5103 44.0984C45.335 44.2732 45.0972 44.3714 44.8493 44.3714ZM26.1273 42.5077H43.9144V25.8501H26.1273V42.5077Z" fill="url(#paint3_linear)"></path><path d="M32.0218 36.4557C31.9419 36.4558 31.8622 36.4453 31.785 36.4246C31.5849 36.3727 31.4078 36.2561 31.2812 36.0932C31.1547 35.9302 31.086 35.73 31.0857 35.5239V24.927C31.0857 24.6798 31.1842 24.4428 31.3595 24.2681C31.5349 24.0933 31.7727 23.9951 32.0206 23.9951H38.0248C38.1481 23.9943 38.2704 24.0178 38.3845 24.0643C38.4987 24.1108 38.6025 24.1792 38.6899 24.2658C38.7774 24.3524 38.8468 24.4555 38.8942 24.5689C38.9416 24.6824 38.9659 24.8041 38.9659 24.927V35.5239C38.966 35.7259 38.9001 35.9224 38.7782 36.0838C38.6563 36.2451 38.4851 36.3626 38.2903 36.4185C38.0956 36.4745 37.8879 36.466 37.6984 36.3943C37.509 36.3226 37.3479 36.1916 37.2396 36.0208L34.9012 32.3245L32.8358 35.9848C32.7542 36.1282 32.6358 36.2474 32.4928 36.3301C32.3498 36.4129 32.1872 36.4562 32.0218 36.4557ZM34.8488 29.5725C35.0067 29.5724 35.1621 29.6122 35.3003 29.6883C35.4385 29.7643 35.5551 29.8741 35.6391 30.0074L37.0962 32.2997V25.8588H32.9554V31.9605L34.0336 30.0471C34.1128 29.9066 34.2273 29.7889 34.3658 29.7057C34.5044 29.6225 34.6622 29.5766 34.8239 29.5725H34.8488Z" fill="url(#paint4_linear)"></path><path d="M25.1713 44.3714H5.51814C5.2702 44.3714 5.03241 44.2732 4.85709 44.0984C4.68177 43.9237 4.58328 43.6866 4.58328 43.4395V24.9183C4.58328 24.6712 4.68177 24.4341 4.85709 24.2593C5.03241 24.0846 5.2702 23.9865 5.51814 23.9865H25.1713C25.4192 23.9865 25.657 24.0846 25.8323 24.2593C26.0076 24.4341 26.1061 24.6712 26.1061 24.9183V43.4395C26.1061 43.5619 26.0819 43.6831 26.035 43.7961C25.988 43.9092 25.9191 44.0119 25.8323 44.0984C25.7455 44.1849 25.6424 44.2536 25.529 44.3004C25.4156 44.3473 25.294 44.3714 25.1713 44.3714ZM6.45299 42.5077H24.2364V25.8501H6.45299V42.5077Z" fill="url(#paint5_linear)"></path><path d="M12.3438 36.4557C12.2639 36.4558 12.1842 36.4453 12.107 36.4246C11.907 36.3726 11.73 36.256 11.6037 36.093C11.4774 35.93 11.4089 35.7298 11.409 35.5238V24.927C11.409 24.6798 11.5075 24.4428 11.6828 24.2681C11.8581 24.0933 12.0959 23.9951 12.3438 23.9951H18.3468C18.5948 23.9951 18.8326 24.0933 19.0079 24.2681C19.1832 24.4428 19.2817 24.6798 19.2817 24.927V35.5238C19.2817 35.7258 19.2158 35.9224 19.094 36.0837C18.9721 36.2451 18.8009 36.3626 18.6061 36.4184C18.4114 36.4745 18.2037 36.466 18.0142 36.3943C17.8247 36.3226 17.6637 36.1915 17.5553 36.0208L15.2169 32.3245L13.164 35.9848C13.0817 36.1289 12.9623 36.2485 12.8181 36.3313C12.6739 36.4141 12.5102 36.457 12.3438 36.4557ZM15.1708 29.5725C15.3287 29.5722 15.4841 29.612 15.6224 29.6881C15.7606 29.7641 15.8772 29.874 15.9611 30.0074L17.412 32.2997V25.8588H13.2787V31.9605L14.3556 30.0471C14.435 29.9064 14.5497 29.7887 14.6885 29.7055C14.8272 29.6223 14.9853 29.5765 15.1471 29.5725H15.1708Z" fill="url(#paint6_linear)"></path><path d="M18.3992 21.1002H12.7489C12.501 21.1002 12.2632 21.0021 12.0879 20.8273C11.9126 20.6525 11.8141 20.4155 11.8141 20.1684V10.5021H9.8733C9.70508 10.5028 9.53979 10.4582 9.39496 10.3729C9.25012 10.2876 9.13115 10.1648 9.05063 10.0175C8.97042 9.86932 8.93201 9.7022 8.93947 9.53396C8.94693 9.36573 8.99999 9.20268 9.09301 9.0621L14.7919 0.451864C14.8768 0.323201 14.9924 0.217612 15.1284 0.144526C15.2644 0.0714411 15.4164 0.0331962 15.5709 0.0332031C15.7254 0.0331962 15.8775 0.0714411 16.0135 0.144526C16.1495 0.217612 16.2651 0.323201 16.35 0.451864L22.0626 9.0621C22.156 9.20222 22.2095 9.36507 22.2172 9.53317C22.2249 9.70128 22.1865 9.86831 22.1062 10.0163C22.0266 10.1648 21.908 10.2889 21.7631 10.3753C21.6182 10.4618 21.4524 10.5073 21.2835 10.5071H19.3378V20.1734C19.3364 20.4203 19.2369 20.6565 19.0609 20.8303C18.8849 21.0041 18.6469 21.1012 18.3992 21.1002ZM13.6838 19.2366H17.4643V9.57024C17.4643 9.3231 17.5628 9.08609 17.7381 8.91134C17.9135 8.73659 18.1512 8.6384 18.3992 8.6384H19.5409L15.5684 2.65103L11.6047 8.6384H12.7489C12.9969 8.6384 13.2346 8.73659 13.41 8.91134C13.5853 9.08609 13.6838 9.3231 13.6838 9.57024V19.2366Z" fill="url(#paint7_linear)"></path><defs><linearGradient id="paint0_linear" x1="6.27215" y1="165.277" x2="70.7481" y2="162.887" gradientUnits="userSpaceOnUse"><stop stop-color="#006EF2"></stop><stop offset="1" stop-color="#01AEFA"></stop></linearGradient><linearGradient id="paint1_linear" x1="6.27215" y1="165.277" x2="70.7481" y2="162.887" gradientUnits="userSpaceOnUse"><stop stop-color="#006EF2"></stop><stop offset="1" stop-color="#01AEFA"></stop></linearGradient><linearGradient id="paint2_linear" x1="6.27215" y1="165.277" x2="70.7481" y2="162.887" gradientUnits="userSpaceOnUse"><stop stop-color="#006EF2"></stop><stop offset="1" stop-color="#01AEFA"></stop></linearGradient><linearGradient id="paint3_linear" x1="6.27215" y1="165.277" x2="70.7481" y2="162.887" gradientUnits="userSpaceOnUse"><stop stop-color="#006EF2"></stop><stop offset="1" stop-color="#01AEFA"></stop></linearGradient><linearGradient id="paint4_linear" x1="6.27215" y1="165.277" x2="70.7481" y2="162.887" gradientUnits="userSpaceOnUse"><stop stop-color="#006EF2"></stop><stop offset="1" stop-color="#01AEFA"></stop></linearGradient><linearGradient id="paint5_linear" x1="6.27215" y1="165.277" x2="70.7481" y2="162.887" gradientUnits="userSpaceOnUse"><stop stop-color="#006EF2"></stop><stop offset="1" stop-color="#01AEFA"></stop></linearGradient><linearGradient id="paint6_linear" x1="6.27215" y1="165.277" x2="70.7481" y2="162.887" gradientUnits="userSpaceOnUse"><stop stop-color="#006EF2"></stop><stop offset="1" stop-color="#01AEFA"></stop></linearGradient><linearGradient id="paint7_linear" x1="6.27215" y1="165.277" x2="70.7481" y2="162.887" gradientUnits="userSpaceOnUse"><stop stop-color="#006EF2"></stop><stop offset="1" stop-color="#01AEFA"></stop></linearGradient></defs></svg>