<svg width="16" height="20" viewBox="0 0 16 20" fill="none" xmlns="http://www.w3.org/2000/svg">
<path d="M7.88661 3.69785e-06C5.79425 0.00202883 3.78828 0.834636 2.30947 2.31488C0.83066 3.79512 -9.80027e-07 5.80189 0 7.89426C0 12.254 5.36828 20 7.89426 20C10.2537 20 15.7885 12.254 15.7885 7.89426C15.7885 6.85693 15.5841 5.82977 15.1869 4.87149C14.7897 3.91322 14.2075 3.04262 13.4736 2.30948C12.7398 1.57633 11.8686 0.994998 10.91 0.598724C9.9513 0.202451 8.92394 -0.0010003 7.88661 3.69785e-06ZM7.88661 11.6779C7.13828 11.6779 6.40677 11.456 5.78455 11.0402C5.16234 10.6245 4.67738 10.0336 4.39101 9.34219C4.10463 8.65082 4.02971 7.89006 4.1757 7.15611C4.32169 6.42216 4.68204 5.74798 5.21119 5.21883C5.74034 4.68969 6.41451 4.32933 7.14846 4.18334C7.88241 4.03735 8.64317 4.11228 9.33453 4.39865C10.0259 4.68502 10.6168 5.16998 11.0326 5.79219C11.4483 6.4144 11.6702 7.14593 11.6702 7.89426C11.6702 8.89773 11.2716 9.86011 10.562 10.5697C9.85246 11.2792 8.89009 11.6779 7.88661 11.6779Z" fill="#006EF2"/>
</svg>
