<svg width="23" height="30" viewBox="0 0 23 30" fill="none" xmlns="http://www.w3.org/2000/svg">
<path d="M11.899 29.8408C11.4969 29.8408 0.786377 16.7023 0.786377 10.7784C0.786377 7.93283 1.91546 5.20378 3.92527 3.19163C5.93507 1.17948 8.66098 0.0490723 11.5033 0.0490723V0.0490723C12.9125 0.049066 14.3078 0.327464 15.6094 0.868342C16.9109 1.40922 18.093 2.20194 19.088 3.20105C20.083 4.20016 20.8712 5.38601 21.4076 6.69068C21.944 7.99534 22.2179 9.39316 22.2137 10.804V10.804C22.2137 16.7023 12.282 29.8408 11.899 29.8408Z" fill="#006EF2"/>
<path d="M14.1968 9.20645C14.2021 9.16014 14.1967 9.11324 14.1812 9.06932C14.1656 9.02539 14.1403 8.98558 14.107 8.95293C14.0738 8.92028 14.0336 8.89565 13.9894 8.88089C13.9453 8.86614 13.8983 8.86165 13.8522 8.86777H13.4501V9.52596H13.8522C13.8966 9.53162 13.9417 9.52746 13.9844 9.51377C14.027 9.50009 14.0661 9.47721 14.099 9.44674C14.1318 9.41628 14.1576 9.37898 14.1746 9.33746C14.1915 9.29594 14.1991 9.25123 14.1968 9.20645Z" fill="white"/>
<path d="M13.8394 9.93506H13.4501V10.67H13.8139C14.1139 10.67 14.267 10.5869 14.267 10.3057C14.267 10.0245 14.1139 9.93506 13.8394 9.93506Z" fill="white"/>
<path d="M9.02673 8.8869H8.72672V9.72403H9.09054C9.37138 9.72403 9.53734 9.6154 9.53734 9.30866C9.53734 9.00193 9.33948 8.8869 9.02673 8.8869Z" fill="white"/>
<path d="M16.1117 6.76529L11.7778 4.26028C11.6892 4.20986 11.5892 4.18335 11.4873 4.18335C11.3855 4.18335 11.2854 4.20986 11.1969 4.26028L6.86931 6.76529C6.78117 6.81549 6.70768 6.88792 6.65617 6.97537C6.60466 7.06281 6.57691 7.16223 6.57568 7.26374V12.2738C6.57691 12.3753 6.60466 12.4747 6.65617 12.5622C6.70768 12.6496 6.78117 12.722 6.86931 12.7722L11.1969 15.2773C11.2854 15.3277 11.3855 15.3542 11.4873 15.3542C11.5892 15.3542 11.6892 15.3277 11.7778 15.2773L16.1117 12.7722C16.1991 12.7217 16.2717 12.6491 16.3221 12.5616C16.3725 12.4741 16.399 12.3748 16.399 12.2738V7.26374C16.399 7.16272 16.3725 7.06347 16.3221 6.97597C16.2717 6.88847 16.1991 6.8158 16.1117 6.76529ZM9.55648 11.0788L9.07138 10.1139H8.71394V11.0788H8.24161V8.45236H9.03308C9.62031 8.45236 9.97777 8.6888 9.97777 9.28949C9.99212 9.44791 9.95519 9.60675 9.87243 9.74254C9.78967 9.87833 9.66546 9.98386 9.51819 10.0435L10.0863 11.0788H9.55648ZM12.3777 11.0788H11.9692L10.9224 9.3534V11.0788H10.4756V8.45236H10.8777L11.9309 10.1841V8.45236H12.3777V11.0788ZM12.9841 11.0788V8.45236H13.8713C14.4011 8.45236 14.6756 8.73353 14.6756 9.16807C14.6787 9.27859 14.6495 9.38762 14.5917 9.48182C14.5339 9.57602 14.4499 9.6513 14.35 9.69846C14.4788 9.744 14.5882 9.83215 14.6601 9.94834C14.7321 10.0645 14.7623 10.2018 14.7458 10.3375C14.7458 10.804 14.4841 11.0788 13.8585 11.0788H12.9841Z" fill="white"/>
</svg>
