<svg width="25" height="14" viewBox="0 0 25 14" fill="none" xmlns="http://www.w3.org/2000/svg">
<path d="M21.0027 0.839111V12.2902C21.0027 13.0267 20.404 13.6254 19.6676 13.6254H11.8276C11.8086 13.6254 11.7943 13.6112 11.7943 13.5922V0.839111" fill="#E1E9F0"/>
<path d="M19.3111 11.0264H15.5385V12.4091H19.3111V11.0264Z" fill="#8298AB"/>
<path d="M3.99695 0.839111V12.4946C3.99695 13.117 4.50061 13.6254 5.12781 13.6254H12.5021V0.839111H3.99695Z" fill="url(#paint0_linear_31_931)"/>
<path d="M12.4643 0.839478L9.33781 5.38192H0.5L3.25588 0.839478H12.4643Z" fill="#E1E9F0"/>
<path d="M12.4645 0.839111L15.3867 5.38155H24.5001L21.5874 0.839111H12.4645Z" fill="url(#paint1_linear_31_931)"/>
<defs>
<linearGradient id="paint0_linear_31_931" x1="5.00571" y1="43.0963" x2="15.3841" y2="42.8543" gradientUnits="userSpaceOnUse">
<stop stop-color="#006EF2"/>
<stop offset="1" stop-color="#01AEFA"/>
</linearGradient>
<linearGradient id="paint1_linear_31_931" x1="13.892" y1="15.8513" x2="28.4605" y2="14.4985" gradientUnits="userSpaceOnUse">
<stop stop-color="#006EF2"/>
<stop offset="1" stop-color="#01AEFA"/>
</linearGradient>
</defs>
</svg>
