<svg width="20" height="20" viewBox="0 0 20 20" fill="none" xmlns="http://www.w3.org/2000/svg">
<path d="M19.4346 14.678L16.6436 11.8869C15.6468 10.8901 13.9522 11.2888 13.5535 12.5847C13.2544 13.4818 12.2576 13.9802 11.3605 13.7809C9.3669 13.2824 6.67552 10.6908 6.17712 8.59746C5.87808 7.70033 6.47616 6.70353 7.37329 6.40448C8.66914 6.00576 9.06786 4.31119 8.07105 3.31438L5.27999 0.523324C4.48255 -0.174441 3.28638 -0.174441 2.58861 0.523324L0.694682 2.41726C-1.19925 4.41087 0.894043 9.69394 5.57903 14.3789C10.264 19.0639 15.5471 21.2569 17.5407 19.2633L19.4346 17.3694C20.1324 16.5719 20.1324 15.3757 19.4346 14.678Z" fill="#006EF2"/>
</svg>
