<svg width="25" height="21" viewBox="0 0 25 21" fill="none" xmlns="http://www.w3.org/2000/svg">
<path d="M13.4074 8.32113C13.1152 7.96743 12.6385 5.00458 12.6385 5.00458H9.94218L9.91655 9.06953C9.2963 9.06953 7.29714 9.06953 6.68201 9.06953L6.65638 5.00458H2.09933C1.21765 5.00458 0.5 5.72222 0.5 6.6039V18.7373C0.5 19.6189 1.21765 20.3366 2.09933 20.3366H14.2224C15.1041 20.3366 15.8218 19.6189 15.8218 18.7373V10.5971C15.8218 10.5971 13.6329 8.59281 13.4074 8.32113ZM14.084 17.9684C14.084 18.1016 13.9764 18.2093 13.8431 18.2093H10.9315C10.7982 18.2093 10.6906 18.1016 10.6906 17.9684V16.7842C10.6906 16.651 10.7982 16.5433 10.9315 16.5433H13.8431C13.9764 16.5433 14.084 16.651 14.084 16.7842V17.9684Z" fill="#E1E9F0"/>
<path d="M17.3902 0.467896C14.2941 0.467896 11.7823 2.97966 11.7823 6.07579C11.7823 9.17192 14.2941 11.6837 17.3902 11.6837C20.4864 11.6837 22.9981 9.17192 22.9981 6.07579C22.9981 2.97966 20.4864 0.467896 17.3902 0.467896ZM17.3902 10.2433C15.0886 10.2433 13.2228 8.37739 13.2228 6.07579C13.2228 3.7742 15.0886 1.90831 17.3902 1.90831C19.6918 1.90831 21.5577 3.7742 21.5577 6.07579C21.5577 8.37739 19.6918 10.2433 17.3902 10.2433Z" fill="url(#paint0_linear_31_832)"/>
<path d="M23.6593 13.0626C23.444 13.0626 23.2287 12.9806 23.0595 12.8166L20.3735 10.3817C20.0454 10.0536 20.0454 9.5154 20.3735 9.18733C20.7016 8.85927 21.2398 8.85927 21.5679 9.18733L24.2539 11.6222C24.582 11.9503 24.582 12.4885 24.2539 12.8166C24.0899 12.9806 23.8746 13.0626 23.6593 13.0626Z" fill="url(#paint1_linear_31_832)"/>
<path d="M9.90616 5.00458H6.65625V9.06953H9.90616V5.00458Z" fill="#8298AB"/>
<path d="M14.089 16.5432H10.6904V18.2143H14.089V16.5432Z" fill="#8298AB"/>
<defs>
<linearGradient id="paint0_linear_31_832" x1="13.1126" y1="37.5347" x2="26.7891" y2="37.0554" gradientUnits="userSpaceOnUse">
<stop stop-color="#006EF2"/>
<stop offset="1" stop-color="#01AEFA"/>
</linearGradient>
<linearGradient id="paint1_linear_31_832" x1="20.646" y1="22.5618" x2="25.9771" y2="22.3636" gradientUnits="userSpaceOnUse">
<stop stop-color="#006EF2"/>
<stop offset="1" stop-color="#01AEFA"/>
</linearGradient>
</defs>
</svg>
