<svg xmlns="http://www.w3.org/2000/svg" width="40" height="39" viewBox="0 0 40 39" fill="none"><rect x="1.19702" y="0.832031" width="19.1956" height="17.474" rx="4" stroke="url(#paint0_linear_1647_4)" stroke-width="1.5" stroke-linejoin="round"></rect><path d="M8.354 0.832031H13.2357V7.92379L10.7415 5.64656L8.354 7.92379V0.832031Z" stroke="url(#paint1_linear_1647_4)" stroke-width="1.5" stroke-linejoin="round"></path><path d="M26.2642 20.6924H31.1459V27.7841L28.6516 25.5069L26.2642 27.7841V20.6924Z" stroke="url(#paint2_linear_1647_4)" stroke-width="1.5" stroke-linejoin="round"></path><rect x="19.1072" y="20.6924" width="19.1956" height="17.474" rx="4" stroke="url(#paint3_linear_1647_4)" stroke-width="1.5" stroke-linejoin="round"></rect><path d="M28.1325 12.29H33.5679C34.5686 12.29 35.3798 13.1012 35.3798 14.1019V14.1019C35.3798 15.1026 34.5686 15.9138 33.5679 15.9138H25.9084C24.8039 15.9138 23.9084 16.8092 23.9084 17.9138V18.8261" stroke="url(#paint4_linear_1647_4)" stroke-width="1.5"></path><path d="M16.3044 35.0966H10.884C9.77946 35.0966 8.88403 34.2012 8.88403 33.0966V32.2354" stroke="url(#paint5_linear_1647_4)" stroke-width="1.5"></path><path d="M11.8828 25.3876C11.8828 26.2508 11.0681 27.5841 10.288 28.6628C9.58452 29.6356 8.1833 29.6356 7.47985 28.6628C6.69972 27.5841 5.88501 26.2508 5.88501 25.3876C5.88501 23.7313 7.22766 22.3887 8.88391 22.3887C10.5402 22.3887 11.8828 23.7313 11.8828 25.3876Z" stroke="url(#paint6_linear_1647_4)" stroke-width="1.5"></path><circle cx="8.88409" cy="25.388" r="1.16827" fill="url(#paint7_linear_1647_4)"></circle><path d="M31.7041 5.06921C31.7041 5.93248 30.8894 7.26572 30.1093 8.34449C29.4058 9.31722 28.0046 9.31722 27.3011 8.34449C26.521 7.26572 25.7063 5.93248 25.7063 5.06921C25.7063 3.41297 27.049 2.07031 28.7052 2.07031C30.3614 2.07031 31.7041 3.41297 31.7041 5.06921Z" stroke="url(#paint8_linear_1647_4)" stroke-width="1.5"></path><circle cx="28.7051" cy="5.06964" r="1.16827" fill="url(#paint9_linear_1647_4)"></circle><defs><linearGradient id="paint0_linear_1647_4" x1="10.7948" y1="0.832031" x2="10.7948" y2="18.3061" gradientUnits="userSpaceOnUse"><stop stop-color="#01AEFA"></stop><stop offset="1" stop-color="#006EF2"></stop></linearGradient><linearGradient id="paint1_linear_1647_4" x1="10.7949" y1="0.832031" x2="10.7949" y2="7.92379" gradientUnits="userSpaceOnUse"><stop stop-color="#01AEFA"></stop><stop offset="1" stop-color="#006EF2"></stop></linearGradient><linearGradient id="paint2_linear_1647_4" x1="28.705" y1="20.6924" x2="28.705" y2="27.7841" gradientUnits="userSpaceOnUse"><stop stop-color="#01AEFA"></stop><stop offset="1" stop-color="#006EF2"></stop></linearGradient><linearGradient id="paint3_linear_1647_4" x1="28.705" y1="20.6924" x2="28.705" y2="38.1664" gradientUnits="userSpaceOnUse"><stop stop-color="#01AEFA"></stop><stop offset="1" stop-color="#006EF2"></stop></linearGradient><linearGradient id="paint4_linear_1647_4" x1="29.6441" y1="12.29" x2="29.6441" y2="18.8261" gradientUnits="userSpaceOnUse"><stop stop-color="#01AEFA"></stop><stop offset="1" stop-color="#006EF2"></stop></linearGradient><linearGradient id="paint5_linear_1647_4" x1="12.5942" y1="32.2354" x2="12.5942" y2="35.0966" gradientUnits="userSpaceOnUse"><stop stop-color="#01AEFA"></stop><stop offset="1" stop-color="#006EF2"></stop></linearGradient><linearGradient id="paint6_linear_1647_4" x1="8.88391" y1="22.3887" x2="8.88391" y2="30.43" gradientUnits="userSpaceOnUse"><stop stop-color="#01AEFA"></stop><stop offset="1" stop-color="#006EF2"></stop></linearGradient><linearGradient id="paint7_linear_1647_4" x1="8.88409" y1="24.2197" x2="8.88409" y2="26.5563" gradientUnits="userSpaceOnUse"><stop stop-color="#01AEFA"></stop><stop offset="1" stop-color="#006EF2"></stop></linearGradient><linearGradient id="paint8_linear_1647_4" x1="28.7052" y1="2.07031" x2="28.7052" y2="10.1116" gradientUnits="userSpaceOnUse"><stop stop-color="#01AEFA"></stop><stop offset="1" stop-color="#006EF2"></stop></linearGradient><linearGradient id="paint9_linear_1647_4" x1="28.7051" y1="3.90137" x2="28.7051" y2="6.23792" gradientUnits="userSpaceOnUse"><stop stop-color="#01AEFA"></stop><stop offset="1" stop-color="#006EF2"></stop></linearGradient></defs></svg>