<svg width="25" height="24" viewBox="0 0 25 24" fill="none" xmlns="http://www.w3.org/2000/svg">
<path d="M5.54816 4.09436L23.3798 4.39008C24.1165 4.40046 24.6457 5.09566 24.4641 5.80644L23.3435 10.18C23.0841 11.1865 22.2332 11.9336 21.2008 12.0581L8.81668 13.5523" fill="url(#paint0_linear_31_846)"/>
<path d="M8.81659 13.817C8.70763 13.817 8.60906 13.7495 8.57274 13.6406L4.75946 2.60022C4.42742 1.63523 3.5195 0.986709 2.49743 0.986709H0.759407C0.614139 0.986709 0.5 0.87257 0.5 0.727302C0.5 0.582035 0.614139 0.467896 0.759407 0.467896H2.49225C3.73221 0.467896 4.83728 1.25649 5.24196 2.42901L9.05524 13.4694C9.10193 13.6043 9.0293 13.7547 8.89441 13.8014C8.87366 13.8118 8.84253 13.817 8.81659 13.817Z" fill="#006EF2" stroke="#304659" stroke-width="0.544804"/>
<path d="M19.4937 23.3269C20.4966 23.3269 21.3096 22.5139 21.3096 21.511C21.3096 20.5082 20.4966 19.6952 19.4937 19.6952C18.4908 19.6952 17.6779 20.5082 17.6779 21.511C17.6779 22.5139 18.4908 23.3269 19.4937 23.3269Z" fill="#304659"/>
<path d="M8.36529 23.3269C9.36815 23.3269 10.1811 22.5139 10.1811 21.511C10.1811 20.5082 9.36815 19.6952 8.36529 19.6952C7.36242 19.6952 6.54944 20.5082 6.54944 21.511C6.54944 22.5139 7.36242 23.3269 8.36529 23.3269Z" fill="#304659"/>
<path d="M21.6831 17.4486H10.3522C10.1395 17.4486 9.92675 17.4227 9.71922 17.3656C9.57914 17.3293 9.50132 17.184 9.53764 17.0491C9.57395 16.909 9.71922 16.8312 9.85411 16.8675C10.0149 16.909 10.181 16.935 10.347 16.935H21.6831C21.8283 16.935 21.9425 17.0491 21.9425 17.1944C21.9425 17.3397 21.8283 17.4486 21.6831 17.4486Z" fill="#006EF2" stroke="#304659" stroke-width="0.544804"/>
<path d="M9.78685 17.3709C9.76609 17.3709 9.74015 17.3657 9.7194 17.3605C9.13314 17.1997 8.65064 16.8002 8.3653 16.2347C8.05401 15.6225 8.01769 14.9065 8.26153 14.2684L8.56763 13.4642C8.61952 13.3293 8.76997 13.2619 8.90486 13.3138C9.03975 13.3656 9.1072 13.5161 9.05532 13.651L8.74922 14.4552C8.55726 14.9584 8.5832 15.5239 8.82704 16.0064C9.04494 16.437 9.40811 16.7431 9.85429 16.8624C9.99437 16.8988 10.0722 17.044 10.0359 17.1841C10.0047 17.2983 9.90099 17.3709 9.78685 17.3709Z" fill="#006EF2" stroke="#304659" stroke-width="0.544804"/>
<path d="M2.38838 14.3877C2.25867 14.398 2.13935 14.3098 2.10822 14.1801C2.08228 14.0401 2.17047 13.9052 2.31055 13.874L6.06677 13.1218C6.20685 13.0958 6.34174 13.184 6.37287 13.3241C6.39881 13.4642 6.31061 13.5991 6.17053 13.6302L2.41432 14.3825C2.40913 14.3877 2.39875 14.3877 2.38838 14.3877Z" fill="#304659"/>
<path d="M1.13883 10.962C1.00389 10.9524 0.894545 10.8416 0.893958 10.7051C0.894139 10.5635 1.00644 10.4439 1.14805 10.4441L4.69969 9.76841C4.84566 9.77448 4.9609 9.88089 4.96072 10.0225C4.96054 10.1641 4.84824 10.2837 4.70663 10.2835L1.15499 10.9592C1.15423 10.9643 1.14909 10.9636 1.13883 10.962Z" fill="#304659"/>
<path d="M10.5288 4.1774L13.7143 2.75586L16.5886 4.28117L10.5288 4.1774Z" fill="#304659"/>
<path d="M16.5883 4.28111L16.7958 3.01001L22.0203 3.06189V4.36931L16.5883 4.28111Z" fill="#8298AB"/>
<defs>
<linearGradient id="paint0_linear_31_846" x1="7.79594" y1="35.3518" x2="30.8207" y2="33.7349" gradientUnits="userSpaceOnUse">
<stop stop-color="#006EF2"/>
<stop offset="1" stop-color="#01AEFA"/>
</linearGradient>
</defs>
</svg>
