<svg width="25" height="24" viewBox="0 0 25 24" fill="none" xmlns="http://www.w3.org/2000/svg">
<path d="M7.20218 9.82788V14.8684H5.18486V9.82788H0.5V21.415C0.5 22.4153 1.31138 23.2322 2.31726 23.2322H13.9044V9.82788H7.20218ZM12.704 21.9985H8.29142V20.3813H12.704V21.9985Z" fill="#E1E9F0"/>
<path d="M19.3117 23.2293H13.9044V9.82495H21.129V21.4121C21.1234 22.4124 20.3121 23.2293 19.3117 23.2293Z" fill="url(#paint0_linear_31_908)"/>
<path d="M7.20226 9.82495H5.18494V14.8655H7.20226V9.82495Z" fill="#8298AB"/>
<path d="M12.6984 20.3777H8.28583V21.9949H12.6984V20.3777Z" fill="#8298AB"/>
<path d="M11.6869 8.10863C11.6147 8.10863 11.5424 8.08085 11.4924 8.02527C11.3813 7.91412 11.3813 7.74185 11.4924 7.6307L15.8494 3.27372C15.905 3.21814 15.9883 3.1848 16.0661 3.19036C16.1439 3.19592 16.2217 3.23482 16.2662 3.30151L18.2224 5.90236L23.4408 0.683999C23.5186 0.606196 23.6297 0.583953 23.7297 0.617297C23.8298 0.650641 23.902 0.745124 23.9131 0.850713L24.2132 3.65163C24.2299 3.80168 24.1187 3.94061 23.9687 3.95728C23.8187 3.97951 23.6797 3.8628 23.663 3.71275L23.4241 1.48981L18.3891 6.52478C18.3335 6.58035 18.2502 6.61369 18.1724 6.60813C18.0946 6.60258 18.0168 6.56369 17.9723 6.497L16.0161 3.89615L11.8814 8.03082C11.8314 8.08083 11.7592 8.10863 11.6869 8.10863Z" fill="#4D4D4D"/>
<path d="M11.6868 8.38628C11.5368 8.38628 11.3979 8.3307 11.2923 8.22511C11.1867 8.11952 11.1311 7.98059 11.1311 7.83055C11.1311 7.6805 11.1867 7.54157 11.2923 7.43598L15.6492 3.07901C15.7715 2.9623 15.9327 2.89561 16.0938 2.91784C16.2439 2.92895 16.3884 3.00675 16.4884 3.13457L18.2556 5.47977L23.2462 0.489272C23.3962 0.339223 23.6185 0.289196 23.8241 0.355884C24.0297 0.42813 24.1687 0.611538 24.1965 0.822717L24.4966 3.62362C24.5132 3.77367 24.4688 3.91816 24.3743 4.02931C24.2798 4.14602 24.1465 4.21826 24.002 4.23493C23.8686 4.25716 23.7241 4.21825 23.6018 4.12378C23.4796 4.0293 23.4018 3.89038 23.3906 3.74033L23.2184 2.1009L18.5946 6.72464C18.4724 6.84134 18.3057 6.90802 18.1501 6.88579C18.0056 6.87467 17.8555 6.79688 17.761 6.66906L15.9938 4.32385L12.087 8.23068C11.9758 8.32515 11.8369 8.38628 11.6868 8.38628ZM11.6868 7.83055V8.10841V7.83055ZM16.0438 3.47357L12.8539 6.6635L16.0438 3.47357L18.1945 6.33005L23.6407 0.88384L18.1945 6.33005L16.0438 3.47357Z" fill="url(#paint1_linear_31_908)"/>
<path d="M23.6407 1.16096H20.7342C20.5786 1.16096 20.4563 1.0387 20.4563 0.883093C20.4563 0.727487 20.5786 0.605225 20.7342 0.605225H23.6407C23.7963 0.605225 23.9185 0.727487 23.9185 0.883093C23.9185 1.0387 23.7907 1.16096 23.6407 1.16096Z" fill="url(#paint2_linear_31_908)"/>
<path d="M23.6406 1.43838H20.7341C20.4284 1.43838 20.1783 1.1883 20.1783 0.882641C20.1783 0.576986 20.4284 0.326904 20.7341 0.326904H23.6406C23.9462 0.326904 24.1963 0.576986 24.1963 0.882641C24.1963 1.1883 23.9462 1.43838 23.6406 1.43838ZM23.6406 0.882641V1.16051V0.882641Z" fill="url(#paint3_linear_31_908)"/>
<defs>
<linearGradient id="paint0_linear_31_908" x1="14.7613" y1="54.1247" x2="23.5786" y2="53.9582" gradientUnits="userSpaceOnUse">
<stop stop-color="#006EF2"/>
<stop offset="1" stop-color="#01AEFA"/>
</linearGradient>
<linearGradient id="paint1_linear_31_908" x1="12.7167" y1="26.9622" x2="28.9838" y2="26.0165" gradientUnits="userSpaceOnUse">
<stop stop-color="#006EF2"/>
<stop offset="1" stop-color="#01AEFA"/>
</linearGradient>
<linearGradient id="paint2_linear_31_908" x1="20.8669" y1="2.44187" x2="24.9016" y2="1.56092" gradientUnits="userSpaceOnUse">
<stop stop-color="#006EF2"/>
<stop offset="1" stop-color="#01AEFA"/>
</linearGradient>
<linearGradient id="paint3_linear_31_908" x1="20.6549" y1="4.00019" x2="25.4829" y2="3.3885" gradientUnits="userSpaceOnUse">
<stop stop-color="#006EF2"/>
<stop offset="1" stop-color="#01AEFA"/>
</linearGradient>
</defs>
</svg>
