<svg width="20" height="19" viewBox="0 0 20 19" fill="none" xmlns="http://www.w3.org/2000/svg">
<path fill-rule="evenodd" clip-rule="evenodd" d="M14.3687 11.2705C14.1581 11.1298 13.0353 10.5322 12.8247 10.4619C12.6142 10.3916 12.4738 10.3213 12.2984 10.5674C12.158 10.7783 11.7018 11.2705 11.5615 11.4462C11.4211 11.5869 11.2808 11.5869 11.0702 11.4814C10.8246 11.3408 10.1228 11.0595 9.24557 10.251C8.57887 9.61817 8.15779 8.84475 8.01743 8.59867C7.87707 8.35258 8.01743 8.24711 8.1227 8.14165C8.22797 8.03618 8.36833 7.89556 8.4736 7.75494C8.57886 7.61432 8.64905 7.54401 8.71923 7.36823C8.78941 7.22761 8.75432 7.08699 8.71923 6.98152C8.71923 6.87606 8.29815 5.71593 8.1227 5.25891C7.94725 4.8019 7.7718 4.8722 7.63144 4.8722C7.49108 4.8722 7.35073 4.83705 7.21037 4.83705C7.07001 4.83705 6.78929 4.87221 6.57875 5.11829C6.33312 5.29407 5.7366 5.85656 5.70151 6.98152C5.63133 8.10649 6.43839 9.23146 6.54366 9.37208C6.64893 9.54786 8.01743 11.9736 10.2983 12.9931C12.5791 14.0126 12.6142 13.6962 13.0353 13.661C13.4563 13.6259 14.4038 13.1689 14.6143 12.6415C14.8248 12.1142 14.8248 11.6572 14.7897 11.5517C14.7547 11.4462 14.6143 11.3759 14.3687 11.2705ZM10.1579 0.23171C5.21025 0.23171 1.17494 4.27457 1.17494 9.23146C1.17494 10.9189 1.6311 12.5361 2.47326 13.872L0.859131 18.6882L5.84187 17.1062C7.1051 17.8094 8.57887 18.2312 10.1579 18.2312C15.1056 18.2312 19.1409 14.1884 19.1409 9.23146C19.1409 4.23941 15.1406 0.23171 10.1579 0.23171Z" fill="white"/>
</svg>
