<svg width="170" height="37" viewBox="0 0 170 37" fill="none" xmlns="http://www.w3.org/2000/svg">
<path d="M3.28121 33.5025H8.473V22.8282H12.4188L17.8598 33.5025H23.6746L17.4029 21.9975C19.6042 21.1253 22.4701 19.007 22.4701 13.6491C22.4701 7.00362 18.5243 4.42849 12.0449 4.42849H3.28121V33.5025ZM8.473 8.99726H11.7957C15.2846 8.99726 17.1952 9.99408 17.1952 13.6491C17.1952 17.0965 15.3677 18.2594 12.2111 18.2594H8.473V8.99726ZM26.4489 25.611C26.4489 30.7197 29.3979 33.8348 35.3373 33.8348C38.8261 33.8348 40.9444 32.7964 43.2703 31.4673L41.6089 27.7708C39.4492 28.9337 38.1616 29.5152 35.5449 29.5152C32.5129 29.5152 31.433 27.8123 31.433 26.0679V23.825H43.7687V19.0901C43.7687 13.483 41.1936 10.2018 35.1711 10.2018C29.2732 10.2018 26.4489 13.6076 26.4489 19.0901V25.611ZM35.1711 14.5213C38.2031 14.5213 38.9092 16.3073 38.9092 19.9208H31.433C31.433 16.0996 32.1807 14.5213 35.1711 14.5213ZM60.1728 12.4861C59.0099 11.2816 57.0162 10.2018 54.7734 10.2018C49.8308 10.2018 47.2972 13.5245 47.2972 19.0901V24.9049C47.2972 30.4705 49.8723 33.8348 54.898 33.8348C57.2239 33.8348 59.3837 32.7134 60.5466 31.3843L61.2112 33.5025H65.1569V2.35177H60.1728V12.4861ZM60.1728 27.2724C59.2175 28.2692 57.7223 29.1414 56.1855 29.1414C53.4027 29.1414 52.2813 27.6046 52.2813 24.4065V19.63C52.2813 16.4319 53.4027 14.8951 56.1855 14.8951C57.7223 14.8951 59.2175 15.7258 60.1728 16.7226V27.2724ZM75.1683 12.9846L74.7115 10.534H70.6411V33.5025H75.6252V16.8888C76.4144 16.0996 78.1173 15.0197 79.9032 15.0197C82.2292 15.0197 83.5167 16.1412 83.5167 19.3393V33.5025H88.5008V18.2594C88.5008 13.7322 86.5903 10.2018 81.6477 10.2018C78.6157 10.2018 76.3728 11.7801 75.1683 12.9846ZM94.3809 4.42849V33.5025H104.1C110.995 33.5025 113.902 30.2213 113.902 25.1126C113.902 21.7068 112.324 19.5054 109.541 18.3425V18.1763C111.701 17.2211 113.113 14.9782 113.113 12.3615C113.113 7.50203 110.122 4.42849 104.183 4.42849H94.3809ZM99.5727 20.8345H103.892C106.883 20.8345 108.586 21.8314 108.586 24.9049C108.586 28.02 106.924 28.9337 103.601 28.9337H99.5727V20.8345ZM99.5727 8.99726H104.017C106.633 8.99726 107.838 10.451 107.838 12.7353C107.838 15.1028 106.633 16.4734 104.017 16.4734H99.5727V8.99726ZM118.381 33.5025H123.365V2.35177H118.381V33.5025ZM141.89 31.052L142.347 33.5025H146.417V10.534H141.433V27.1478C140.644 27.9369 138.941 29.0168 137.155 29.0168C134.829 29.0168 133.541 27.8954 133.541 24.6972V10.534H128.557V25.7771C128.557 30.3044 130.468 33.8348 135.41 33.8348C138.442 33.8348 140.685 32.2565 141.89 31.052ZM150.89 25.611C150.89 30.7197 153.839 33.8348 159.778 33.8348C163.267 33.8348 165.385 32.7964 167.711 31.4673L166.05 27.7708C163.89 28.9337 162.602 29.5152 159.986 29.5152C156.954 29.5152 155.874 27.8123 155.874 26.0679V23.825H168.209V19.0901C168.209 13.483 165.634 10.2018 159.612 10.2018C153.714 10.2018 150.89 13.6076 150.89 19.0901V25.611ZM159.612 14.5213C162.644 14.5213 163.35 16.3073 163.35 19.9208H155.874C155.874 16.0996 156.621 14.5213 159.612 14.5213Z" fill="white"/>
</svg>
